<svg id="Discord-icon-White" xmlns="http://www.w3.org/2000/svg" xmlns:xlink="http://www.w3.org/1999/xlink" width="80" height="62.118" viewBox="0 0 80 62.118">
  <defs>
    <clipPath id="clip-path">
      <rect id="Rectangle_7" data-name="Rectangle 7" width="80" height="62.118" transform="translate(0 -0.31)" fill="#fff"/>
    </clipPath>
  </defs>
  <g id="Discord-Logo-White" transform="translate(0 0.31)" clip-path="url(#clip-path)">
    <path id="Path_1" data-name="Path 1" d="M67.723,5.466A65.971,65.971,0,0,0,51.44.416a.247.247,0,0,0-.262.124A45.953,45.953,0,0,0,49.15,4.7a60.9,60.9,0,0,0-18.289,0A42.149,42.149,0,0,0,28.8.54.257.257,0,0,0,28.54.416,65.788,65.788,0,0,0,12.256,5.466a.233.233,0,0,0-.107.092C1.778,21.053-1.063,36.167.331,51.093a.275.275,0,0,0,.1.187,66.34,66.34,0,0,0,19.976,10.1.259.259,0,0,0,.281-.092,47.415,47.415,0,0,0,4.087-6.647.253.253,0,0,0-.139-.352,43.688,43.688,0,0,1-6.24-2.974.257.257,0,0,1-.025-.425c.419-.314.839-.641,1.239-.971a.247.247,0,0,1,.259-.035,47.31,47.31,0,0,0,40.2,0,.246.246,0,0,1,.262.032c.4.33.82.66,1.242.975a.256.256,0,0,1-.022.425,41,41,0,0,1-6.244,2.971.255.255,0,0,0-.136.355,53.238,53.238,0,0,0,4.083,6.644.254.254,0,0,0,.281.1,66.12,66.12,0,0,0,20.008-10.1.257.257,0,0,0,.1-.184C81.324,33.84,76.862,18.85,67.827,5.562A.2.2,0,0,0,67.723,5.466ZM26.733,42c-3.942,0-7.19-3.619-7.19-8.063s3.185-8.063,7.19-8.063c4.036,0,7.253,3.651,7.19,8.063C33.923,38.386,30.738,42,26.733,42Zm26.582,0c-3.942,0-7.19-3.619-7.19-8.063s3.185-8.063,7.19-8.063c4.036,0,7.253,3.651,7.19,8.063C60.505,38.386,57.352,42,53.316,42Z" transform="translate(0 -0.112)" fill="#fff"/>
  </g>
</svg>
